Coordinates
version=1
nRows=6
nColumns=63
inDegrees=yes

Units are S.I. units (second, meters, Newtons, ...)
If the header above contains a line with 'inDegrees', this indicates whether rotational values are in degrees (yes) or radians (no).

endheader
time	pelvis_tilt	pelvis_list	pelvis_rotation	pelvis_tx	pelvis_ty	pelvis_tz	hip_flexion_r	hip_adduction_r	hip_rotation_r	knee_angle_r	knee_angle_r_beta	ankle_angle_r	subtalar_angle_r	mtp_angle_r	hip_flexion_l	hip_adduction_l	hip_rotation_l	knee_angle_l	knee_angle_l_beta	ankle_angle_l	subtalar_angle_l	mtp_angle_l	L5_S1_Flex_Ext	L5_S1_Lat_Bending	L5_S1_axial_rotation	L4_L5_Flex_Ext	L4_L5_Lat_Bending	L4_L5_axial_rotation	L3_L4_Flex_Ext	L3_L4_Lat_Bending	L3_L4_axial_rotation	L2_L3_Flex_Ext	L2_L3_Lat_Bending	L2_L3_axial_rotation	L1_L2_Flex_Ext	L1_L2_Lat_Bending	L1_L2_axial_rotation	L1_T12_Flex_Ext	L1_T12_Lat_Bending	L1_T12_axial_rotation	Abs_r3	Abs_r2	Abs_r1	Abs_t1	Abs_t2	neck_flexion	neck_bending	neck_rotation	arm_flex_r	arm_add_r	arm_rot_r	elbow_flex_r	pro_sup_r	wrist_flex_r	wrist_dev_r	arm_flex_l	arm_add_l	arm_rot_l	elbow_flex_l	pro_sup_l	wrist_flex_l	wrist_dev_l
      2.48333333	     -1.83515250	     -4.42797771	     90.55323770	      0.28334496	      0.76968938	      0.61889102	      1.84490786	     -1.60368156	     -4.87235459	      7.19837951	      0.12563542	     30.59549498	     12.50252901	      0.00000000	      3.89436172	      1.13945916	     -4.62589819	      6.70902686	      0.11709461	     31.43658949	     11.64737050	      0.00000000	      0.00953026	     -0.30107250	     -0.69050013	      0.01769864	     -0.40042643	     -0.73365638	      0.01565726	     -0.73202768	     -0.73365638	      0.01089213	     -0.73202768	     -0.60418761	      0.00884980	     -0.61394704	     -0.56103135	      0.00544559	     -0.46636130	     -0.51787510	      0.06807369	     -3.40579234	     -3.84035456	      0.00000000	      0.00000000	     13.17557799	      5.00132734	      0.55660611	     19.18222032	    -19.90544122	     65.12479218	     65.30962061	     89.05721987	      9.76040926	      2.47718715	     18.11813254	    -14.31750563	     53.35546938	     64.07634966	     76.56060910	     14.18615855	      6.78737401
      2.50000000	     -1.77782767	     -4.44688190	     90.79278382	      0.28386772	      0.77010402	      0.61823817	      1.63483412	     -1.45356471	     -4.88865215	      6.84856320	      0.11952998	     30.45100783	     12.32879721	      0.00000000	      3.91895493	      1.03275828	     -4.48317928	      6.78307069	      0.11838692	     31.35612368	     11.70697570	      0.00000000	      0.03374469	     -0.33393506	     -0.66992413	      0.06266726	     -0.44413364	     -0.71179439	      0.05543915	     -0.81192972	     -0.71179439	      0.03856680	     -0.81192972	     -0.58618361	      0.03133532	     -0.68096038	     -0.54431335	      0.01928171	     -0.51726541	     -0.50244310	      0.24103492	     -3.77754024	     -3.72591703	      0.00000000	      0.00000000	     11.52149910	      4.97081203	      0.80668646	     19.30522607	    -19.83713277	     65.91351553	     65.22759128	     89.03898141	      9.92419602	      2.77994889	     18.07173589	    -14.33268469	     53.59403601	     63.96626846	     76.95413696	     14.12199504	      6.70166313
      2.51666667	     -1.57903602	     -4.55123646	     91.50081544	      0.28379078	      0.77051776	      0.61718268	      1.01479689	     -0.93534633	     -1.81467422	      5.50507683	      0.09608172	     29.23975539	      7.67879862	      0.00000000	      3.98484778	      0.80750395	     -3.84763925	      6.72020137	      0.11728964	     31.13357428	     11.58314732	      0.00000000	      0.07560439	     -0.34315942	     -0.81648748	      0.14040490	     -0.45640203	     -0.86751795	      0.12421044	     -0.83435781	     -0.86751795	      0.08640825	     -0.83435781	     -0.71442655	      0.07020623	     -0.69977069	     -0.66339608	      0.04320035	     -0.53155394	     -0.61236561	      0.54003456	     -3.88188797	     -4.54105843	      0.00000000	      0.00000000	      9.86642186	      4.90615711	      2.08966113	     19.61840914	    -19.63828481	     66.98636510	     64.96105292	     88.91232594	      9.87419275	      2.49711330	     17.21407198	    -14.43134811	     52.62282035	     64.07671975	     79.34773071	     13.34620857	      5.07436119
      2.53333333	     -1.41828067	     -4.76988018	     91.99996066	      0.28367402	      0.77064274	      0.61683237	      0.98426891	     -0.69631313	     -1.92645595	      5.06368879	      0.08837804	     29.07516193	      7.32716693	      0.00000000	      4.26509691	      0.61668819	     -3.82176315	      6.84356434	      0.11944273	     30.95808999	     11.79435969	      0.00000000	      0.11865102	     -0.35760617	     -0.84232180	      0.22034681	     -0.47561620	     -0.89496691	      0.19493176	     -0.86948363	     -0.89496691	      0.13560625	     -0.86948363	     -0.73703157	      0.11017934	     -0.72923049	     -0.68438646	      0.06779719	     -0.55393195	     -0.63174135	      0.84751236	     -4.04531247	     -4.68474115	      0.00000000	      0.00000000	      8.46677662	      4.78202057	      2.72975483	     19.21438711	    -19.66483508	     66.28113796	     64.88874908	     88.74007925	      9.94215183	      1.91991017	     16.71009555	    -14.38780983	     52.24858883	     64.23870859	     79.61541595	     12.16245081	      4.22336272
      2.55000000	     -1.21226750	     -4.87439771	     92.60131325	      0.28360910	      0.77083346	      0.61697744	      0.89478689	     -0.37939937	     -1.77150657	      4.68246144	      0.08172437	     28.91019493	      6.48570608	      0.00000000	      4.56143739	      0.33784833	     -3.92995766	      7.18148337	      0.12534053	     30.96608864	     12.34175725	      0.00000000	      0.13476138	     -0.36947324	     -0.88292039	      0.25026535	     -0.49139941	     -0.93810291	      0.22139947	     -0.89833723	     -0.93810291	      0.15401878	     -0.89833723	     -0.77255534	      0.12513941	     -0.75342983	     -0.71737282	      0.07700265	     -0.57231405	     -0.66219029	      0.96258704	     -4.17955517	     -4.91053833	      0.00000000	      0.00000000	      7.30214502	      4.65542721	      3.44104468	     18.83310625	    -19.65147162	     65.10291930	     64.78335514	     88.53714970	      9.77576534	      0.93349913	     16.24119842	    -14.39635664	     51.83611081	     64.51867175	     80.70306276	      9.85271666	      2.50522593
      2.56666667	     -1.04852620	     -4.87985713	     92.99034514	      0.28364497	      0.77095682	      0.61745101	      0.86994206	     -0.15063982	     -1.88254305	      4.57511907	      0.07985089	     29.03440689	      6.25502928	      0.00000000	      4.69367178	      0.13996565	     -3.90450136	      7.34344106	      0.12816722	     30.97296129	     12.49672209	      0.00000000	      0.12640847	     -0.38295862	     -0.87300046	      0.23475316	     -0.50933497	     -0.92756299	      0.20767647	     -0.93112559	     -0.92756299	      0.14447224	     -0.93112559	     -0.76387540	      0.11738290	     -0.78092922	     -0.70931288	      0.07222980	     -0.59320290	     -0.65475035	      0.90292303	     -4.33210451	     -4.85536667	      0.00000000	      0.00000000	      6.45295581	      4.43075145	      3.92812607	     18.41031457	    -19.68589296	     63.55281024	     64.85354598	     88.27096792	      9.06043186	      0.31970853	     15.80393827	    -14.29526885	     50.87577900	     64.88452222	     80.79354911	      9.02940970	      1.76541670
